<svg width="3342" height="982" viewBox="0 0 3342 982" fill="none" xmlns="http://www.w3.org/2000/svg">
<rect width="3342" height="613" fill="#90CCF4"/>
<rect y="607" width="3342" height="375" fill="#66C09D"/>
<path d="M0 612.533L280.7 347.722L386.625 612.533L677.917 395.388V612.533H386.625H0Z" fill="#81C19F"/>
<path d="M1069.84 612.533L831.508 480.128L1096.32 310.648L1069.84 612.533L1292.28 501.312L1498.83 310.648L1400.85 612.533C1607.41 519.849 1718.63 480.128 1933.12 416.573L1747.76 609.885L1400.85 612.533L1292.28 501.312L1257.85 612.533H1069.84Z" fill="#81C19F"/>
<path d="M2189.99 527.794L2489.23 310.648L2534.25 609.885L2738.15 501.312L2878.5 609.885L2870.56 382.147L3008.26 527.794L3161.85 416.573L3130.07 609.885L3008.26 527.794L2878.5 609.885H2534.25H2385.95L2189.99 527.794Z" fill="#81C19F"/>
<path d="M280.7 347.722L566.696 477.479L386.625 612.533L280.7 347.722Z" fill="#5C8984"/>
<path d="M677.917 612.533V392.74L1069.84 612.533C1069.84 597.704 1087.49 403.332 1096.32 308L1292.28 501.312L1400.85 612.533L1498.83 308L1702.74 490.72L1400.85 612.533H1257.85L1292.28 501.312L1069.84 612.533H677.917Z" fill="#5C8984"/>
<path d="M1933.12 416.573L1747.76 609.885H2388.6L1933.12 416.573Z" fill="#5C8984"/>
<path d="M2534.24 609.885L2489.23 313.296L2738.15 501.312L2870.56 382.147L2878.5 609.885L3008.26 527.793L3130.07 609.885L3161.85 416.573L3341.92 609.885H3130.07H2878.5L2738.15 501.312L2534.24 609.885Z" fill="#5C8984"/>
<path d="M1566.64 543.271L1550.15 538.873V612.533H1566.64V543.271Z" fill="#6F7783"/>
<path d="M1431.42 556.464V612.533H1550.15V538.873H1465.5V556.464H1431.42Z" fill="#D7A362"/>
<path d="M1475.39 555.364H1539.16" stroke="white" stroke-width="2"/>
<path d="M1475.39 563.06H1539.16" stroke="white" stroke-width="2"/>
<path d="M1475.39 571.855H1539.16" stroke="white" stroke-width="2"/>
<path d="M1474.29 520.184L1461.1 499.295H1396.24" stroke="black"/>
<path d="M1396.24 492.699H1422.62" stroke="black"/>
<path d="M1396.24 488.301C1397.11 488.301 1422.25 488.301 1434.71 488.301" stroke="black"/>
<path d="M1396.24 483.903C1397.11 483.903 1422.25 483.903 1434.71 483.903" stroke="black"/>
<path d="M1396.24 479.506C1397.11 479.506 1422.25 479.506 1434.71 479.506" stroke="black"/>
<rect x="1440.21" y="475.108" width="19.7892" height="19.7892" fill="black"/>
<path d="M1695.27 401.448H1618.31V612.533H1695.27V401.448Z" fill="#D7A362"/>
<path d="M1721.66 422.337L1695.27 401.448V612.533H1721.66V422.337Z" fill="#6F7783"/>
<path d="M1618.31 420.138H1674.38" stroke="white" stroke-width="2"/>
<path d="M1618.31 435.53H1674.38" stroke="white" stroke-width="2"/>
<path d="M1618.31 450.921H1674.38" stroke="white" stroke-width="2"/>
<path d="M1618.31 466.313H1674.38" stroke="white" stroke-width="2"/>
<path d="M1618.31 481.704H1674.38" stroke="white" stroke-width="2"/>
<path d="M1618.31 497.096H1674.38" stroke="white" stroke-width="2"/>
<path d="M1618.31 512.488H1674.38" stroke="white" stroke-width="2"/>
<path d="M1618.31 527.879H1674.38" stroke="white" stroke-width="2"/>
<path d="M1618.31 543.271H1674.38" stroke="white" stroke-width="2"/>
<path d="M1618.31 558.662H1674.38" stroke="white" stroke-width="2"/>
<path d="M1706.27 387.156L1720.76 363.72H1792.02" stroke="black"/>
<path d="M1792.02 356.319H1763.03" stroke="black"/>
<path d="M1792.02 351.386C1791.05 351.386 1763.43 351.386 1749.75 351.386" stroke="black"/>
<path d="M1792.02 346.451C1791.05 346.451 1763.43 346.451 1749.75 346.451" stroke="black"/>
<path d="M1792.02 341.518C1791.05 341.518 1763.43 341.518 1749.75 341.518" stroke="black"/>
<rect width="21.7402" height="22.2025" transform="matrix(-1 0 0 1 1743.71 336.584)" fill="black"/>
<path d="M1823.9 451.739V612.251H1908.55V451.739H1851.38V446.242H1832.7V451.739H1823.9Z" fill="#D7A362"/>
<path d="M1803.01 479.224L1823.9 452.838V612.251L1803.01 610.334V479.224Z" fill="#6F7783"/>
<rect x="1840.39" y="468.229" width="10.994" height="10.994" fill="white"/>
<rect x="1862.38" y="468.229" width="10.994" height="10.994" fill="white"/>
<rect x="1884.37" y="468.229" width="10.994" height="10.994" fill="white"/>
<rect x="1840.39" y="485.82" width="10.994" height="10.994" fill="white"/>
<rect x="1862.38" y="485.82" width="10.994" height="10.994" fill="white"/>
<rect x="1884.37" y="485.82" width="10.994" height="10.994" fill="white"/>
<rect x="1840.39" y="503.41" width="10.994" height="10.994" fill="white"/>
<rect x="1862.38" y="503.41" width="10.994" height="10.994" fill="white"/>
<rect x="1884.37" y="503.41" width="10.994" height="10.994" fill="white"/>
<rect x="1840.39" y="521" width="10.994" height="10.994" fill="white"/>
<rect x="1862.38" y="521" width="10.994" height="10.994" fill="white"/>
<rect x="1884.37" y="521" width="10.994" height="10.994" fill="white"/>
<path d="M1873.37 441.844L1885.27 422.615H1943.73" stroke="black"/>
<path d="M1943.73 416.542H1919.95" stroke="black"/>
<path d="M1943.73 412.494C1942.94 412.494 1920.28 412.494 1909.05 412.494" stroke="black"/>
<path d="M1943.73 408.446C1942.94 408.446 1920.28 408.446 1909.05 408.446" stroke="black"/>
<path d="M1943.73 404.397C1942.94 404.397 1920.28 404.397 1909.05 404.397" stroke="black"/>
<rect width="17.8381" height="18.2174" transform="matrix(-1 0 0 1 1904.09 400.349)" fill="black"/>
</svg>